<svg width="81" height="80" viewBox="0 0 81 80" fill="none" xmlns="http://www.w3.org/2000/svg">
<path fill-rule="evenodd" clip-rule="evenodd" d="M68.1435 12.3358L80.1211 24.1254C81.5405 19.3138 76.5248 10.7319 67.6319 1.98712C61.4023 -4.152 44.6246 8.77272 26.4175 26.6916C8.21535 44.6007 -4.51963 60.7035 1.70992 66.8377C10.4273 75.4098 19.4306 80.5323 24.4012 79.0765L12.3584 67.2325C10.7332 65.6336 10.668 63.1167 12.2029 61.6017L19.6713 54.2584L33.7405 68.1011C35.4107 69.7444 37.8785 69.9665 39.2728 68.6044C40.6522 67.2424 40.4265 64.8045 38.7612 63.1661L24.6871 49.3235L34.7185 39.4584L48.7877 53.2961C50.458 54.9395 52.9257 55.1615 54.3201 53.7995C55.6994 52.4374 55.4737 49.9996 53.8085 48.3611L39.7393 34.5185L49.7708 24.6535L63.84 38.4912C65.5102 40.1345 67.9779 40.3566 69.3723 38.9945C70.7516 37.6325 70.5259 35.1946 68.8607 33.5562L54.7915 19.7136L62.4305 12.1976C63.9653 10.6776 66.5234 10.7418 68.1435 12.3358Z" fill="#162838"/>
</svg>
