<svg width="101" height="87" viewBox="0 0 101 87" fill="none" xmlns="http://www.w3.org/2000/svg">
<path d="M43.2783 0.784506C35.7936 0.784506 29.7254 6.75502 29.7254 14.1192C30.3669 23.1138 36.5331 25.6755 43.3466 30.7118C48.4132 33.8659 47.7927 37.3816 48.814 43.0365C44.3041 44.1603 38.8984 45.4938 35.6889 42.809L28.0396 37.4549C28.0287 37.446 28.0164 37.4384 28.0054 37.4296C25.6675 35.5432 22.6742 34.4075 19.415 34.4075C13.6852 34.4075 8.79382 37.9063 6.81172 42.851C6.55074 43.8442 6.38406 43.8386 5.50265 43.8361C2.50522 43.8361 0.0782471 46.2239 0.0782471 49.1734C0.0782471 52.1227 2.50522 54.5107 5.5029 54.5107C8.0933 54.2268 7.167 53.9215 8.6344 55.824C11.1113 59.0162 15.019 61.077 19.4152 61.077C24.9445 61.077 29.6967 57.8184 31.8045 53.1469C34.199 54.4963 36.2701 55.0036 39.0003 55.3692H100.391C92.784 41.7287 73.8918 43.8362 61.4688 42.666C58.9177 36.4311 58.3425 28.1954 52.425 24.0109H52.3651C55.1082 21.5706 56.8314 18.0442 56.8314 14.1192C56.8313 6.75494 50.7631 0.784424 43.2783 0.784424V0.784506ZM43.2783 7.45182C47.0207 7.45182 50.0547 10.4371 50.0547 14.1191C50.0547 17.8012 47.0206 20.7864 43.2783 20.7864C39.5359 20.7864 36.5019 17.8011 36.5019 14.1191C36.5019 10.4371 39.5361 7.45182 43.2783 7.45182ZM19.4152 41.0748C23.1575 41.0748 26.1916 44.06 26.1916 47.7421C26.1916 51.4241 23.1575 54.4093 19.4152 54.4093C15.6728 54.4093 12.6387 51.424 12.6387 47.7421C12.6387 44.06 15.6729 41.0748 19.4152 41.0748ZM55.5907 43.8695C57.7171 43.8695 59.4409 45.5657 59.4409 47.6579C59.4409 49.7501 57.7171 51.4462 55.5907 51.4462C53.4642 51.4462 51.7403 49.7502 51.7403 47.6579C51.7404 45.5657 53.4642 43.8695 55.5907 43.8695ZM55.8816 62.1291C61.1054 72.5172 64.7205 85.2665 77.9052 86.5845L68.6131 62.129H55.8816V62.1291ZM15.12 69.512V75.4723H28.3222V69.512H15.12ZM38.8805 69.512V75.4723H53.4518L50.6625 69.512H38.8805ZM80.3009 69.512L82.0977 75.4723H95.2999V69.512H80.3009Z" fill="#162838"/>
</svg>
