<svg width="74" height="80" viewBox="0 0 74 80" fill="none" xmlns="http://www.w3.org/2000/svg">
<path d="M73.0201 25.2028C70.1895 25.2725 67.3922 24.5907 64.9221 23.2288C62.9493 22.1148 60.7031 21.5561 58.4292 21.6138V18.0248C61.2597 17.955 64.057 18.6369 66.5271 19.9987C68.4999 21.1127 70.7462 21.6714 73.0201 21.6138V25.2028ZM73.0201 14.4358C70.7462 14.4935 68.4999 13.9347 66.5271 12.8207C64.057 11.4589 61.2597 10.777 58.4292 10.8468V14.4358C60.7031 14.3781 62.9493 14.9368 64.9221 16.0508C67.3922 17.4127 70.1895 18.0946 73.0201 18.0248V14.4358ZM73.0201 28.7917C70.7462 28.8494 68.4999 28.2907 66.5271 27.1767C64.057 25.8149 61.2597 25.133 58.4292 25.2028V28.7917C60.7031 28.7341 62.9493 29.2928 64.9221 30.4068C67.3922 31.7686 70.1895 32.4505 73.0201 32.3807V28.7917ZM29.2473 38.5897C37.8609 36.9506 46.3835 34.8782 54.7814 32.3807V7.25781C54.7814 7.25781 31.0712 0.079834 20.128 0.079834C15.2565 0.0933256 10.5563 1.85035 6.90473 5.02301C3.25312 8.19568 0.899544 12.5672 0.283209 17.3218C-0.333126 22.0764 0.829893 26.8893 3.55523 30.8622C6.28056 34.8351 10.382 37.6966 15.0942 38.9127L18.3042 61.0927H21.9519C22.0978 62.8033 22.6572 64.4548 23.5837 65.9095C24.5101 67.3642 25.7766 68.5798 27.2776 69.455C28.9699 70.4449 30.3753 71.8461 31.3589 73.5241C32.3426 75.2021 32.8716 77.1006 32.8951 79.0376H36.5428C36.5262 76.5652 35.8798 74.1363 34.6627 71.9732C33.4455 69.8101 31.6965 67.9818 29.5756 66.6556C27.0222 64.6816 25.5996 63.3537 25.5996 61.0927H29.2473V38.5897ZM20.128 28.7917C18.3244 28.7917 16.5613 28.2655 15.0616 27.2796C13.5619 26.2937 12.3931 24.8924 11.7029 23.2529C11.0127 21.6134 10.8321 19.8093 11.1839 18.0688C11.5358 16.3283 12.4043 14.7296 13.6797 13.4748C14.9551 12.22 16.58 11.3654 18.3489 11.0192C20.1179 10.673 21.9515 10.8507 23.6178 11.5298C25.2842 12.2089 26.7084 13.3589 27.7105 14.8344C28.7125 16.31 29.2473 18.0447 29.2473 19.8193C29.2473 22.1989 28.2866 24.4811 26.5764 26.1638C24.8661 27.8464 22.5466 28.7917 20.128 28.7917Z" fill="#162838"/>
</svg>
