<svg width="195" height="79" viewBox="0 0 195 79" fill="none" xmlns="http://www.w3.org/2000/svg">
<path d="M57.1972 14.728H47.7292V40H57.1972C65.2612 40 70.4452 34.852 70.4452 27.364C70.4452 19.84 65.2612 14.728 57.1972 14.728ZM53.8852 34.672V19.984H56.8012C61.4452 19.984 64.1812 22.72 64.1812 27.364C64.1812 32.008 61.4452 34.672 56.8012 34.672H53.8852ZM89.3654 14.728H73.8854V40H89.3654V35.068H80.0414V29.524H88.2854V24.772H80.0414V19.66H89.3654V14.728ZM92.318 27.328C92.318 34.888 97.574 40.18 105.026 40.18C111.038 40.18 115.574 36.832 117.014 31.36H110.246C109.202 33.52 107.294 34.6 104.954 34.6C101.174 34.6 98.582 31.792 98.582 27.328C98.582 22.864 101.174 20.056 104.954 20.056C107.294 20.056 109.202 21.136 110.246 23.296H117.014C115.574 17.824 111.038 14.44 105.026 14.44C97.574 14.44 92.318 19.768 92.318 27.328ZM138.028 40H144.544L135.4 14.728H128.272L119.128 40H125.572L127.084 35.536H136.516L138.028 40ZM134.932 30.784H128.704L131.8 21.532L134.932 30.784ZM161.259 32.296C161.259 34.096 160.071 35.032 158.019 35.032H153.483V29.452H157.947C159.999 29.452 161.259 30.496 161.259 32.296ZM160.647 22.324C160.647 24.052 159.531 24.952 157.515 24.952H153.483V19.66H157.515C159.531 19.66 160.647 20.596 160.647 22.324ZM167.487 33.124C167.487 30.244 165.579 27.652 162.627 27.04C165.075 26.32 166.911 24.34 166.911 21.28C166.911 17.284 163.851 14.728 158.703 14.728H147.327V40H159.099C164.427 40 167.487 37.3 167.487 33.124ZM189.417 32.476C189.417 24.016 176.925 25.996 176.925 21.604C176.925 20.02 178.041 19.264 179.517 19.3C181.173 19.336 182.325 20.308 182.433 21.928H189.093C188.841 17.104 185.133 14.368 179.625 14.368C174.333 14.368 170.409 17.032 170.409 21.82C170.337 30.784 182.973 28.264 182.973 32.944C182.973 34.42 181.821 35.32 180.021 35.32C178.293 35.32 177.069 34.384 176.889 32.44H170.337C170.517 37.552 174.765 40.252 180.201 40.252C186.105 40.252 189.417 36.724 189.417 32.476ZM94.2085 60.576C94.2085 61.376 93.6805 61.792 92.7685 61.792H90.7525V59.312H92.7365C93.6485 59.312 94.2085 59.776 94.2085 60.576ZM93.9365 56.144C93.9365 56.912 93.4405 57.312 92.5445 57.312H90.7525V54.96H92.5445C93.4405 54.96 93.9365 55.376 93.9365 56.144ZM96.9765 60.944C96.9765 59.664 96.1285 58.512 94.8165 58.24C95.9045 57.92 96.7205 57.04 96.7205 55.68C96.7205 53.904 95.3605 52.768 93.0725 52.768H88.0165V64H93.2485C95.6165 64 96.9765 62.8 96.9765 60.944ZM106.227 64H109.123L105.059 52.768H101.891L97.8274 64H100.691L101.363 62.016H105.555L106.227 64ZM104.851 59.904H102.083L103.459 55.792L104.851 59.904ZM116.296 56.416C116.296 57.296 115.816 57.824 114.792 57.824H113.096V55.04H114.792C115.816 55.04 116.296 55.584 116.296 56.416ZM110.36 52.768V64H113.096V59.76H113.752L116.088 64H119.176L116.584 59.552C118.312 59.04 119.08 57.712 119.08 56.304C119.08 54.352 117.704 52.768 114.952 52.768H110.36ZM126.99 60.576C126.99 61.376 126.462 61.792 125.55 61.792H123.534V59.312H125.518C126.43 59.312 126.99 59.776 126.99 60.576ZM126.718 56.144C126.718 56.912 126.222 57.312 125.326 57.312H123.534V54.96H125.326C126.222 54.96 126.718 55.376 126.718 56.144ZM129.758 60.944C129.758 59.664 128.91 58.512 127.598 58.24C128.686 57.92 129.502 57.04 129.502 55.68C129.502 53.904 128.142 52.768 125.854 52.768H120.798V64H126.03C128.398 64 129.758 62.8 129.758 60.944ZM138.225 52.768H131.345V64H138.225V61.808H134.081V59.344H137.745V57.232H134.081V54.96H138.225V52.768ZM145.937 56.416C145.937 57.296 145.457 57.824 144.433 57.824H142.737V55.04H144.433C145.457 55.04 145.937 55.584 145.937 56.416ZM140.001 52.768V64H142.737V59.76H143.393L145.729 64H148.817L146.225 59.552C147.953 59.04 148.721 57.712 148.721 56.304C148.721 54.352 147.345 52.768 144.593 52.768H140.001Z" fill="white"/>
<path d="M32.6605 14.8726C27.0993 14.8726 22.5905 19.3211 22.5905 24.808C23.0671 31.5096 27.6487 33.4183 32.7113 37.1707C36.4758 39.5208 36.0148 42.1402 36.7736 46.3535C33.4227 47.1908 29.4062 48.1843 27.0214 46.184L21.338 42.1948C21.3298 42.1882 21.3208 42.1825 21.3126 42.176C19.5754 40.7704 17.3514 39.9242 14.9298 39.9242C10.6725 39.9242 7.03809 42.5311 5.56537 46.2153C5.37146 46.9553 5.24761 46.9511 4.59271 46.9492C2.36559 46.9492 0.562317 48.7283 0.562317 50.926C0.562317 53.1234 2.36559 54.9027 4.5929 54.9027C6.5176 54.6911 5.82935 54.4636 6.91965 55.8811C8.76 58.2595 11.6635 59.7951 14.9299 59.7951C19.0382 59.7951 22.5692 57.3671 24.1353 53.8865C25.9144 54.8919 27.4533 55.2698 29.4819 55.5423H75.0958C69.4438 45.3791 55.4067 46.9494 46.1763 46.0775C44.2808 41.432 43.8534 35.2958 39.4566 32.178H39.4121C41.4502 30.3598 42.7306 27.7324 42.7306 24.808C42.7305 19.321 38.2218 14.8726 32.6605 14.8726V14.8726ZM32.6605 19.8403C35.4412 19.8403 37.6954 22.0645 37.6954 24.8078C37.6954 27.5513 35.4411 29.7755 32.6605 29.7755C29.8799 29.7755 27.6255 27.5513 27.6255 24.8078C27.6255 22.0645 29.88 19.8403 32.6605 19.8403ZM14.9299 44.8919C17.7105 44.8919 19.9649 47.1161 19.9649 49.8595C19.9649 52.6029 17.7105 54.8271 14.9299 54.8271C12.1493 54.8271 9.8949 52.6028 9.8949 49.8595C9.8949 47.1161 12.1493 44.8919 14.9299 44.8919ZM41.8088 46.9742C43.3887 46.9742 44.6695 48.2379 44.6695 49.7968C44.6695 51.3556 43.3887 52.6193 41.8088 52.6193C40.2288 52.6193 38.9478 51.3557 38.9478 49.7968C38.948 48.2379 40.2288 46.9742 41.8088 46.9742ZM42.0249 60.5789C45.9063 68.3188 48.5924 77.818 58.3887 78.8L51.4846 60.5788H42.0249V60.5789ZM11.7385 66.0797V70.5206H21.5479V66.0797H11.7385ZM29.3928 66.0797V70.5206H40.2195L38.147 66.0797H29.3928ZM60.1688 66.0797L61.5038 70.5206H71.3132V66.0797H60.1688Z" fill="white"/>
</svg>
