<svg width="74" height="80" viewBox="0 0 74 80" fill="none" xmlns="http://www.w3.org/2000/svg">
<path d="M34.2519 24.3248C32.1264 19.6718 29.6243 15.0824 27.2609 10.0952C27.1962 9.94067 27.1431 9.78155 27.0714 9.62698C26.9236 9.3042 26.7549 8.99734 26.5909 8.6882L26.4708 8.43588L26.4661 8.4427C22.6819 1.64616 14.6998 -1.47252 8.0392 1.47113C1.00202 4.57845 -1.88585 13.273 1.59346 20.8879C5.07046 28.505 13.5932 32.1556 20.6303 29.046C20.8752 28.9392 21.1039 28.8073 21.3373 28.6846C25.8077 29.6802 25.944 32.9512 25.944 32.9512C25.944 32.9512 36.613 29.4938 34.2519 24.3248ZM6.68998 18.6375C4.47671 13.789 6.10779 8.34723 10.3287 6.4833C14.5473 4.61482 19.764 7.03339 21.9772 11.8796C24.1905 16.7258 22.5617 22.1676 18.3431 24.0316C14.1199 25.8978 8.90094 23.4837 6.68998 18.6375Z" fill="#162838"/>
<path d="M57.7521 79.3179C60.439 77.8245 62.8047 73.6943 61.2846 71.0484L34.1316 24.0615C31.5833 25.189 27.344 29.3192 25.9439 32.9538L57.7521 79.3179Z" fill="#162838"/>
<path d="M65.9815 1.46918C59.3232 -1.47447 51.3388 1.64421 47.5546 8.44073L47.5476 8.43391L47.4252 8.6885C47.2611 8.99537 47.0902 9.30223 46.9446 9.62501C46.8753 9.77958 46.8222 9.93642 46.7575 10.0933C44.3941 15.0804 41.8897 19.6698 39.7665 24.3228C37.4077 29.4918 48.0767 32.9514 48.0767 32.9514C48.0767 32.9514 48.213 29.6804 52.6811 28.6848C52.9168 28.8076 53.1432 28.9371 53.3904 29.0463C60.4252 32.1558 68.9456 28.5053 72.4272 20.8881C75.9042 13.2733 73.0164 4.57876 65.9815 1.46918ZM67.3307 18.6378C65.1151 23.484 59.9008 25.898 55.6776 24.0318C51.459 22.1679 49.8302 16.7261 52.0458 11.8799C54.2544 7.03369 59.4711 4.6174 63.692 6.48361C67.9129 8.34754 69.5417 13.7893 67.3307 18.6378Z" fill="#162838"/>
<path d="M19.0096 79.2301C16.3227 77.7367 13.9569 73.6065 15.4771 70.9606L42.6301 23.9736C45.1783 25.1011 49.4177 29.2313 50.8178 32.8659L19.0096 79.2301Z" fill="#162838"/>
<path d="M40.619 39.6029C40.6184 40.5452 40.2373 41.4486 39.5597 42.1145C38.8821 42.7803 37.9634 43.154 37.0057 43.1534C36.048 43.1528 35.1297 42.7779 34.453 42.1112C33.7762 41.4445 33.3964 40.5406 33.397 39.5984C33.3973 39.1318 33.491 38.6699 33.6727 38.239C33.8545 37.808 34.1207 37.4165 34.4562 37.0868C34.7918 36.7571 35.19 36.4957 35.6282 36.3174C36.0665 36.1392 36.5361 36.0476 37.0103 36.0479C37.4845 36.0482 37.954 36.1403 38.392 36.3192C38.83 36.498 39.2279 36.7599 39.563 37.09C39.8981 37.4202 40.1638 37.812 40.345 38.2432C40.5262 38.6743 40.6193 39.1364 40.619 39.6029Z" fill="#162838"/>
</svg>
